<svg width="21" height="21" viewBox="0 0 21 21" fill="none" xmlns="http://www.w3.org/2000/svg">
<path d="M13.5649 15.749C13.5649 16.1512 13.4857 16.5494 13.3318 16.921C13.1779 17.2926 12.9523 17.6302 12.6679 17.9145C12.3835 18.1989 12.0459 18.4245 11.6743 18.5784C11.3028 18.7323 10.9046 18.8115 10.5024 18.8115C10.1002 18.8115 9.70197 18.7323 9.33041 18.5784C8.95885 18.4245 8.62125 18.1989 8.33687 17.9145C8.05249 17.6302 7.8269 17.2926 7.673 16.921C7.51909 16.5494 7.43988 16.1512 7.43988 15.749M16.8295 15.749H4.17613C3.87003 15.7489 3.57084 15.658 3.31639 15.4879C3.06194 15.3177 2.86364 15.0759 2.74658 14.7931C2.62951 14.5103 2.59893 14.1991 2.6587 13.8989C2.71848 13.5987 2.86591 13.3229 3.08238 13.1065L3.60913 12.5789C4.10113 12.0866 4.37746 11.419 4.37738 10.723V8.31152C4.37738 6.68707 5.02269 5.12915 6.17135 3.98049C7.32001 2.83183 8.87793 2.18652 10.5024 2.18652C12.1268 2.18652 13.6847 2.83183 14.8334 3.98049C15.9821 5.12915 16.6274 6.68707 16.6274 8.31152V10.723C16.6275 11.4192 16.9042 12.0867 17.3965 12.5789L17.9241 13.1065C18.1402 13.3231 18.2872 13.5988 18.3468 13.8989C18.4063 14.199 18.3756 14.5099 18.2586 14.7926C18.1416 15.0752 17.9436 15.3169 17.6894 15.4871C17.4352 15.6574 17.1354 15.7485 16.8295 15.749Z" stroke="#1E1E1E" stroke-linecap="round" stroke-linejoin="round"/>
</svg>
